<svg width="0" height="0" class="hidden">
  <symbol viewBox="0 0 24 24" xmlns="http://www.w3.org/2000/svg" id="linkedin">
    <path d="M20.4 20.5H17v-5.6c0-1.3 0-3-1.9-3-1.8 0-2 1.4-2 2.9v5.7H9.3V9h3.4v1.6c.5-1 1.6-1.9 3.4-1.9 3.6 0 4.2 2.4 4.2 5.5v6.3zm-15-13a2 2 0 01-2.1-2.1 2 2 0 112 2zm1.7 13H3.6V9H7v11.5zM22.2 0H1.8C.8 0 0 .8 0 1.7v20.6c0 1 .8 1.7 1.8 1.7h20.4c1 0 1.8-.8 1.8-1.7V1.7c0-1-.8-1.7-1.8-1.7z"/>
  </symbol>
  <symbol viewBox="0 0 24 24" xmlns="http://www.w3.org/2000/svg" id="github">
    <path d="M12 .3a12 12 0 00-3.8 23.4c.6.1.8-.3.8-.6v-2c-3.3.7-4-1.6-4-1.6-.6-1.4-1.4-1.8-1.4-1.8-1-.7.1-.7.1-.7 1.2 0 1.9 1.2 1.9 1.2 1 1.8 2.8 1.3 3.5 1 0-.8.4-1.3.7-1.6-2.7-.3-5.5-1.3-5.5-6 0-1.2.5-2.3 1.3-3.1-.2-.4-.6-1.6 0-3.2 0 0 1-.3 3.4 1.2a11.5 11.5 0 016 0c2.3-1.5 3.3-1.2 3.3-1.2.6 1.6.2 2.8 0 3.2.9.8 1.3 1.9 1.3 3.2 0 4.6-2.8 5.6-5.5 5.9.5.4.9 1 .9 2.2v3.3c0 .3.1.7.8.6A12 12 0 0012 .3"/>
  </symbol>
  <symbol xmlns="http://www.w3.org/2000/svg" viewBox="0 0 24 24" id="telegram">
    <path d="M24 3.8l-3.7 17c-.3 1.2-1 1.5-2 1l-5.5-4-2.7 2.5c-.3.3-.5.5-1 .5-.8 0-.7-.2-.9-1l-1.9-6.1L.8 12c-1.1-.3-1.1-1.2.3-1.8l21.3-8.1c1-.5 1.9.2 1.5 1.7z"/>
  </symbol>
  <symbol viewBox="0 0 24 24" xmlns="http://www.w3.org/2000/svg" id="twitter">
    <path d="M24 4.6a10 10 0 01-2.9.7 5 5 0 002.2-2.7c-1 .6-2 1-3.1 1.2a5 5 0 00-8.4 4.5A14 14 0 011.6 3.2 4.8 4.8 0 001 5.6a5 5 0 002.2 4.1 4.9 4.9 0 01-2.3-.6A5 5 0 005 14a5 5 0 01-2.2 0 5 5 0 004.6 3.5 9.9 9.9 0 01-6.1 2.1H0a14 14 0 007.6 2.2c9 0 14-7.5 14-14V7A10 10 0 0024 4.6z"/>
  </symbol>
  <symbol viewBox="0 0 490 490" xmlns="http://www.w3.org/2000/svg" id="at">
    <path d="M421 62C376 21 321 0 254 0 184 0 125 23 76 70S2 176 2 245c0 67 24 125 70 173 47 48 110 72 189 72 48 0 95-10 141-29 15-7 22-24 16-39-6-16-24-23-39-16-40 17-79 26-118 26A180 180 0 0170 246a186 186 0 01307-146c33 30 49 68 49 113 0 31-8 56-23 77s-30 31-47 31c-9 0-13-5-13-14l2-28 18-152h-64l-4 15a83 83 0 00-53-20c-31 0-58 13-79 37-22 25-33 56-33 95 0 37 9 68 29 91 19 23 43 35 70 35 25 0 46-11 63-31 13 20 32 29 58 29 37 0 70-16 97-49 27-32 41-72 41-118 0-58-22-108-67-149zM274 292c-12 15-25 23-41 23-11 0-19-6-26-17-6-11-10-25-10-42 0-20 5-37 14-50s21-19 34-19c12 0 23 5 32 15s14 22 14 37c0 20-6 38-17 53z"/>
  </symbol>
  <symbol viewBox="0 0 24 24" xmlns="http://www.w3.org/2000/svg" id="twitch">
    <path d="M2.1 0L.5 4.1V21h5.8v3h3.2l3-3h4.7l6.3-6.3V0H2zm19.2 13.6l-3.6 3.6H12l-3 3v-3H4v-15h17.2v11.4zm-3.6-7.3v6.2h-2.1V6.3h2.1zm-5.7 0v6.2H9.9V6.3H12z" fill-rule="evenodd" clip-rule="evenodd"/>
  </symbol>
</svg>
